<?xml version="1.0" encoding="utf-8"?>
<!-- Generator: Adobe Illustrator 26.2.1, SVG Export Plug-In . SVG Version: 6.00 Build 0)  -->
<svg version="1.1" id="Layer_1" xmlns="http://www.w3.org/2000/svg" xmlns:xlink="http://www.w3.org/1999/xlink" x="0px" y="0px"
	 viewBox="0 0 199.2 51.4" style="enable-background:new 0 0 199.2 51.4;" xml:space="preserve">
<style type="text/css">
	.st0{fill:url(#Path_130_00000039834899417732534310000017046414330287326883_);}
	.st1{fill:#FFFFFF;}
	.st2{enable-background:new    ;}
</style>
<g id="Component_2" transform="translate(0 -0.31)">
	<g id="Group_127" transform="translate(0 0.31)">
		
			<linearGradient id="Path_130_00000043452106001331905180000009112490089897863600_" gradientUnits="userSpaceOnUse" x1="-534.9272" y1="874.717" x2="-534.9272" y2="873.717" gradientTransform="matrix(47.266 0 0 -51.4033 25307.4902 44963.3398)">
			<stop  offset="0" style="stop-color:#00817E"/>
			<stop  offset="1" style="stop-color:#00A08D"/>
		</linearGradient>
		<path id="Path_130" style="fill:url(#Path_130_00000043452106001331905180000009112490089897863600_);" d="M47.3,35.6V15.8
			c0-2.1-1.1-4.1-3-5.1l-17.8-10c-1.8-1-3.9-1-5.7,0L3,10.7c-1.8,1-3,3-3,5.1v19.7c0,2.1,1.1,4.1,3,5.1l17.8,10c1.8,1,3.9,1,5.7,0
			l17.8-10C46.1,39.6,47.3,37.7,47.3,35.6z"/>
		<g id="Group_118" transform="translate(22.878 17.258)">
			<path id="Path_131" class="st1" d="M3.9,5.1l2,5.1l2-5.1L10,0h4.7l-3.5,8.3l-3.5,8.3H4.2L0,6.7L3.9,5.1z"/>
		</g>
		<path id="Path_132" class="st1" d="M18.5,24.7h8.6c0,3.3-0.7,5.6-2.7,7.5c-1.6,1.5-3.7,2.2-5.9,2.1c-2.4,0.1-4.7-0.8-6.4-2.5
			c-1.6-1.6-2.4-3.8-2.4-6c0-2.3,0.9-4.6,2.5-6.2c3-2.7,7.4-3.2,11-1.3c1.3,0.8,2.3,2,3,3.4L22,23.3c-0.3-0.7-0.7-1.2-1.2-1.7
			c-0.6-0.5-1.5-0.8-2.3-0.8c-1.1,0-2.1,0.4-2.8,1.1c-0.9,1-1.5,2.4-1.5,3.8c0,1.3,0.4,2.6,1.3,3.6c0.8,0.9,1.9,1.3,3,1.3
			c0.9,0,1.7-0.2,2.4-0.8c0.6-0.5,0.9-1.1,1-1.9h-3.6V24.7z"/>
	</g>
	<g class="st2">
		<path d="M74,27.4v-4.2h9.3V34c-1,1-2.3,1.8-4,2.5c-1.7,0.7-3.8,1.1-6.4,1.1c-2.8,0-5.3-0.6-7.3-1.8c-2-1.2-3.6-2.8-4.7-4.9
			s-1.6-4.3-1.6-6.8c0-1.9,0.3-3.7,1-5.3s1.6-3.1,2.7-4.4c1.2-1.3,2.6-2.2,4.2-3c1.6-0.7,3.4-1.1,5.4-1.1c2.6,0,4.7,0.5,6.4,1.5
			c1.7,1,3.1,2.2,4.1,3.7l-3.5,3.1c-0.8-1.2-1.8-2.2-2.9-2.9c-1.1-0.7-2.5-1.1-4.2-1.1c-1.7,0-3.2,0.4-4.4,1.3
			c-1.2,0.9-2.2,2-2.8,3.4s-1,3-1,4.6c0,1.8,0.4,3.5,1.2,4.8c0.8,1.4,1.8,2.4,3.2,3.2c1.3,0.8,2.7,1.1,4.3,1.1
			c2.4,0,4.2-0.6,5.5-1.7v-4.1H74z"/>
		<path d="M100.5,31.5l2.5,2.8c-0.1,0.1-0.3,0.3-0.6,0.6c-0.4,0.4-0.9,0.7-1.5,1.1c-0.7,0.4-1.5,0.8-2.5,1.1c-1,0.3-2.3,0.4-3.7,0.4
			c-2,0-3.6-0.4-5.1-1.3c-1.4-0.8-2.6-2-3.4-3.5c-0.8-1.5-1.2-3.2-1.2-5.2c0-1.8,0.4-3.4,1.2-4.9c0.8-1.4,1.9-2.6,3.3-3.4
			c1.4-0.8,3-1.3,4.8-1.3c1.7,0,3.1,0.3,4.3,0.9c1.1,0.6,2.1,1.4,2.8,2.4s1.2,2.1,1.5,3.4c0.3,1.2,0.5,2.5,0.5,3.8v0.7H89.6
			c0,0.9,0.3,1.7,0.8,2.3c0.5,0.7,1.2,1.2,1.9,1.6c0.8,0.4,1.6,0.6,2.4,0.6c1.2,0,2.2-0.1,3-0.4c0.8-0.3,1.4-0.6,1.9-0.9
			C100,32,100.3,31.7,100.5,31.5z M89.6,25.9h9c0-0.6-0.2-1.2-0.5-1.9c-0.3-0.6-0.8-1.1-1.4-1.5s-1.4-0.6-2.4-0.6
			c-1,0-1.9,0.2-2.6,0.6s-1.2,0.9-1.6,1.5C89.8,24.7,89.6,25.3,89.6,25.9z"/>
	</g>
	<g class="st2">
		<path d="M105.6,37V18.7h4.4l0.1,2.1c0.5-0.5,1.1-1.1,2-1.6c0.9-0.6,2-0.8,3.5-0.8c2.3,0,4,0.7,5.2,2c1.2,1.4,1.8,3.2,1.8,5.5V37
			h-4.6V25.9c0-1.1-0.3-2-1-2.7c-0.6-0.7-1.5-1-2.5-1c-1.3,0-2.3,0.5-3.2,1.4c-0.8,0.9-1.2,2.1-1.2,3.4V37H105.6z"/>
	</g>
	<g class="st2">
		<path d="M132.4,37l-10.6-26h2.1l9.5,23.7l9.5-23.7h2l-10.6,26H132.4z"/>
	</g>
	<g class="st2">
		<path d="M157.6,37h-1.7c0-0.4,0-0.8-0.1-1.2c0-0.5,0-1,0-1.8c-0.6,0.9-1.3,1.6-2.1,2.1s-1.6,0.9-2.4,1.1c-0.8,0.2-1.5,0.3-2.2,0.3
			c-1,0-2-0.2-2.9-0.4c-1-0.3-1.8-0.8-2.4-1.6c-0.6-0.8-1-1.9-1-3.3c0-1.2,0.3-2.2,0.8-3.2c0.5-0.9,1.4-1.7,2.5-2.2
			c1.1-0.6,2.7-0.8,4.5-0.8c1.1,0,2.1,0,2.9,0.1c0.9,0.1,1.6,0.2,2.2,0.3v-1c0-2-0.5-3.3-1.4-4s-2.3-1.1-4.1-1.1
			c-1.5,0-2.7,0.2-3.5,0.6c-0.9,0.4-1.5,0.8-2,1.2l-0.9-1.2c0.5-0.5,1.3-1,2.4-1.5c1.1-0.5,2.5-0.8,4-0.8c2.3,0,4.1,0.5,5.4,1.5
			s1.9,2.6,1.9,4.9v8.3c0,0.5,0,1,0,1.5s0,0.9,0,1.2L157.6,37z M155.8,30.4v-2.5c-0.5-0.1-1.2-0.2-2-0.3c-0.8-0.1-1.9-0.1-3.1-0.1
			c-1.3,0-2.4,0.2-3.2,0.5c-0.8,0.3-1.4,0.7-1.8,1.2c-0.4,0.5-0.7,1-0.8,1.6c-0.1,0.5-0.2,1-0.2,1.5c0,1.3,0.4,2.2,1.3,2.8
			s2,0.9,3.3,0.9c1.2,0,2.3-0.3,3.2-0.8c1-0.5,1.7-1.2,2.3-2.1C155.5,32.2,155.8,31.3,155.8,30.4z"/>
		<path d="M160.5,29.6V19.1h1.8V29c0,1.8,0.2,3.2,0.6,4.2c0.4,1,1,1.7,1.8,2.1c0.8,0.4,1.7,0.6,2.9,0.6c1.5,0,2.7-0.4,3.7-1.2
			c1-0.8,1.7-1.8,2.1-2.9c0.5-1.2,0.7-2.3,0.7-3.4v-9.2h1.8v14.2c0,1,0,1.8,0,2.2c0,0.5,0,1,0.1,1.6h-1.6c0-0.6-0.1-1.1-0.1-1.6
			c0-0.4,0-1.2,0-2.2c-0.3,0.5-0.7,1.1-1.2,1.8c-0.6,0.7-1.3,1.2-2.2,1.7c-0.9,0.5-2.1,0.7-3.4,0.7c-1.7,0-3-0.3-4-1
			s-1.7-1.5-2.1-2.7S160.5,31.2,160.5,29.6z"/>
		<path d="M180.1,37V11h1.8v26H180.1z"/>
		<path d="M187.7,31.5V20.7h-3.6v-1.6h3.6v-5.9h1.8v5.9h5.9v1.6h-5.9v10.4c0,1.4,0.1,2.5,0.4,3.1c0.3,0.7,0.7,1.1,1.2,1.3
			c0.5,0.2,1,0.3,1.7,0.3c0.7,0,1.2-0.1,1.7-0.4c0.5-0.2,0.9-0.6,1.4-1.2l1.1,1.1c-0.5,0.7-1.1,1.2-1.8,1.6
			c-0.7,0.4-1.5,0.5-2.6,0.5c-0.9,0-1.8-0.2-2.5-0.5c-0.7-0.3-1.3-0.9-1.7-1.8C187.9,34.3,187.7,33.1,187.7,31.5z"/>
	</g>
</g>
</svg>
